<svg width="364" height="364" viewBox="0 0 364 364" fill="none" xmlns="http://www.w3.org/2000/svg">
<path d="M181.652 84.5322C155.894 84.5322 131.187 94.7662 112.972 112.977C94.7611 131.192 84.5271 155.899 84.5271 181.657C84.5271 207.415 94.7611 232.122 112.972 250.337C131.187 268.548 155.894 278.782 181.652 278.782C207.41 278.782 232.117 268.548 250.332 250.337C268.543 232.122 278.777 207.415 278.777 181.657C278.746 155.907 268.504 131.219 250.297 113.012C232.09 94.8052 207.402 84.5632 181.652 84.5322V84.5322ZM181.652 253.702C162.507 253.702 144.148 246.093 130.613 232.554C117.082 219.011 109.484 200.648 109.492 181.503C109.504 162.358 117.121 144.003 130.672 130.48C144.219 116.953 162.586 109.363 181.731 109.386C200.876 109.406 219.227 117.035 232.747 130.589C246.263 144.144 253.841 162.515 253.813 181.659C253.782 200.788 246.169 219.124 232.641 232.647C219.118 246.174 200.782 253.788 181.653 253.819L181.652 253.702Z" fill="#D0D0D0"/>
<path d="M181.652 62.472C188.546 62.472 194.136 56.8822 194.136 49.988V12.48C194.136 5.5855 188.546 0 181.652 0C174.758 0 169.168 5.5859 169.168 12.48V50.105C169.234 56.9566 174.805 62.472 181.652 62.472V62.472Z" fill="#D0D0D0"/>
<path d="M181.652 300.832C174.757 300.832 169.168 306.422 169.168 313.316V350.824C169.168 357.719 174.758 363.304 181.652 363.304C188.546 363.304 194.136 357.718 194.136 350.824V313.316C194.136 306.422 188.546 300.832 181.652 300.832Z" fill="#D0D0D0"/>
<path d="M79.7419 97.3622C81.9294 100.222 85.2419 101.995 88.8317 102.233C92.4215 102.472 95.9411 101.147 98.484 98.6043C101.027 96.0613 102.351 92.5418 102.113 88.952C101.875 85.3622 100.101 82.0498 97.2418 79.8623L70.8198 53.3233C65.8471 49.5186 58.8318 49.9835 54.4058 54.4092C49.98 58.835 49.5152 65.8502 53.3199 70.8232L79.7419 97.3622Z" fill="#D0D0D0"/>
<path d="M283.562 265.942C281.374 263.083 278.062 261.309 274.472 261.071C270.882 260.833 267.363 262.157 264.82 264.7C262.277 267.243 260.953 270.762 261.191 274.352C261.429 277.942 263.203 281.254 266.062 283.442L292.484 309.981C294.672 312.84 297.984 314.614 301.574 314.852C305.164 315.09 308.683 313.766 311.226 311.223C313.769 308.68 315.093 305.161 314.855 301.571C314.617 297.981 312.843 294.668 309.984 292.481L283.562 265.942Z" fill="#D0D0D0"/>
<path d="M62.472 181.652C62.472 174.757 56.8822 169.168 49.988 169.168H12.48C5.5855 169.168 0 174.758 0 181.652C0 188.546 5.5859 194.136 12.48 194.136H50.105C56.9566 194.07 62.472 188.499 62.472 181.652V181.652Z" fill="#D0D0D0"/>
<path d="M350.822 169.172H313.314C306.42 169.172 300.83 174.762 300.83 181.656C300.83 188.55 306.42 194.14 313.314 194.14H350.822C357.717 194.14 363.302 188.55 363.302 181.656C363.302 174.762 357.716 169.172 350.822 169.172Z" fill="#D0D0D0"/>
<path d="M79.7419 265.942L53.3199 292.481C50.4605 294.668 48.6871 297.981 48.4488 301.571C48.2105 305.161 49.5347 308.68 52.0777 311.223C54.6207 313.766 58.1402 315.09 61.73 314.852C65.3198 314.614 68.6323 312.84 70.8198 309.981L97.4218 283.379L97.4179 283.383C100.277 281.195 102.051 277.883 102.289 274.293C102.527 270.703 101.203 267.184 98.6601 264.641C96.1171 262.098 92.5976 260.773 89.0078 261.012C85.418 261.25 82.1055 263.023 79.918 265.883L79.7419 265.942Z" fill="#D0D0D0"/>
<path d="M274.982 101.032C278.291 101.028 281.462 99.7079 283.791 97.3563L309.982 70.8174C312.841 68.6299 314.614 65.3173 314.853 61.7275C315.091 58.1377 313.767 54.6181 311.224 52.0752C308.681 49.5323 305.161 48.2081 301.571 48.4464C297.982 48.6847 294.669 50.458 292.482 53.3174L265.88 79.9195L265.884 79.9155C262.415 83.5405 261.45 88.8843 263.434 93.4895C265.419 98.095 269.97 101.068 274.981 101.033L274.982 101.032Z" fill="#D0D0D0"/>
</svg>
