<svg width="363" height="289" viewBox="0 0 363 289" fill="none" xmlns="http://www.w3.org/2000/svg">
<path d="M228.918 51.8586C232.239 51.843 235.418 50.5031 237.75 48.1398C240.078 45.7726 241.375 42.5773 241.344 39.257V12.484C241.344 5.58951 235.754 0 228.86 0C221.966 0 216.376 5.58981 216.376 12.484V39.257C216.345 42.5968 217.653 45.8117 220.013 48.1789C222.368 50.55 225.579 51.8742 228.919 51.8586H228.918Z" fill="#D0D0D0"/>
<path d="M153.498 75.7787C155.686 78.6381 158.998 80.4115 162.588 80.6498C166.178 80.8881 169.693 79.5639 172.24 77.0209C174.783 74.4779 176.107 70.9584 175.869 67.3686C175.631 63.7788 173.857 60.4663 170.998 58.2788L152.1 39.2628C149.913 36.4073 146.6 34.63 143.01 34.3917C139.42 34.1534 135.901 35.4776 133.358 38.0206C130.815 40.5675 129.491 44.0831 129.729 47.6729C129.967 51.2627 131.741 54.5752 134.6 56.7627L153.498 75.7787Z" fill="#D0D0D0"/>
<path d="M311.638 198.628C306.669 194.824 299.65 195.289 295.228 199.714C290.802 204.14 290.338 211.159 294.138 216.128L305.806 227.796C310.775 231.597 317.794 231.132 322.22 226.707C326.646 222.281 327.111 215.266 323.306 210.297L311.638 198.628Z" fill="#D0D0D0"/>
<path d="M349.848 120.929H323.071C316.176 120.929 310.591 126.515 310.591 133.409C310.591 140.303 316.177 145.893 323.071 145.893H349.848C356.742 145.893 362.328 140.303 362.328 133.409C362.328 126.514 356.742 120.929 349.848 120.929Z" fill="#D0D0D0"/>
<path d="M295.478 79.4486C298.787 79.4447 301.955 78.1244 304.287 75.7728L323.303 56.7568C327.108 51.788 326.643 44.7688 322.217 40.3428C317.791 35.917 310.772 35.4522 305.803 39.2569L286.787 58.2729C283.232 61.8432 282.17 67.1987 284.096 71.8549C286.021 76.5111 290.556 79.5502 295.596 79.5658L295.478 79.4486Z" fill="#D0D0D0"/>
<path d="M301.888 133.529C301.892 112.744 293.029 92.9426 277.525 79.0946C262.025 65.2506 241.353 58.6726 220.697 61.0126C200.045 63.3524 181.369 74.3916 169.357 91.3526C149.462 81.626 126.334 80.9696 105.919 89.5557C85.509 98.1416 69.802 115.13 62.841 136.154C38.513 140.626 17.837 156.552 7.30604 178.931C-3.22896 201.31 -2.32677 227.392 9.72793 248.99C21.7869 270.584 43.5129 285.041 68.0909 287.822C69.1729 288.126 70.2901 288.283 71.4151 288.287H217.245C218.37 288.283 219.487 288.126 220.569 287.822C244.815 285.404 266.471 271.615 278.913 250.666C291.354 229.717 293.104 204.104 283.628 181.654C295.409 168.396 301.909 151.267 301.886 133.529L301.888 133.529ZM216.255 263.379H72.175C54.433 262.179 38.55 251.957 30.113 236.305C21.6794 220.653 21.8708 201.762 30.6247 186.285C39.3747 170.805 55.4648 160.906 73.2268 160.07C78.9573 159.804 83.7738 155.663 84.8908 150.035C88.2072 134.269 98.6678 120.941 113.2 113.976C127.732 107.011 144.673 107.206 159.04 114.503C173.407 121.796 183.56 135.362 186.509 151.202C187.11 154.546 189.052 157.503 191.88 159.386C194.712 161.264 198.185 161.913 201.501 161.179C215.501 158.206 230.11 161.167 241.849 169.354C253.587 177.546 261.408 190.229 263.454 204.397C265.497 218.561 261.587 232.944 252.642 244.12C243.701 255.292 230.529 262.265 216.259 263.378L216.255 263.379ZM269.107 159.779C254.627 143.986 234.185 134.994 212.755 134.99H208.087H208.091C204.247 123.99 197.943 114.013 189.657 105.822C197.493 94.4816 209.829 87.0556 223.52 85.4386C237.208 83.8214 250.934 88.1691 261.196 97.3726C271.462 106.576 277.274 119.744 277.157 133.529C277.122 142.872 274.344 152.002 269.165 159.779H269.107Z" fill="#D0D0D0"/>
</svg>
