<svg width="402" height="427" viewBox="0 0 402 427" fill="none" xmlns="http://www.w3.org/2000/svg">
<path d="M256.236 12.484V39.316C256.236 46.2105 261.822 51.8 268.716 51.8C275.61 51.8 281.2 46.2102 281.2 39.316V12.484C281.2 5.58949 275.61 0 268.716 0C261.821 0 256.236 5.58979 256.236 12.484Z" fill="#D0D0D0"/>
<path d="M193.356 75.6642C195.539 78.5197 198.852 80.297 202.442 80.5314C206.032 80.7696 209.551 79.4494 212.094 76.9025C214.637 74.3595 215.961 70.8439 215.723 67.2541C215.485 63.6643 213.711 60.3479 210.856 58.1643L192.071 39.0313C187.102 35.2266 180.083 35.6915 175.657 40.1172C171.231 44.543 170.766 51.5582 174.571 56.5312L193.356 75.6642Z" fill="#D0D0D0"/>
<path d="M351.136 198.164C348.948 195.305 345.636 193.531 342.046 193.293C338.456 193.055 334.94 194.379 332.398 196.922C329.851 199.465 328.53 202.984 328.769 206.574C329.003 210.164 330.78 213.477 333.636 215.664L345.304 227.332V227.328C347.491 230.188 350.804 231.961 354.394 232.199C357.983 232.438 361.499 231.113 364.046 228.57C366.589 226.027 367.909 222.508 367.675 218.918C367.437 215.328 365.659 212.016 362.804 209.828L351.136 198.164Z" fill="#D0D0D0"/>
<path d="M389.296 120.754H362.46C355.565 120.754 349.98 126.344 349.98 133.238C349.98 140.132 355.566 145.722 362.46 145.722H389.296C396.19 145.722 401.776 140.132 401.776 133.238C401.776 126.343 396.19 120.754 389.296 120.754V120.754Z" fill="#D0D0D0"/>
<path d="M362.746 56.7041C366.551 51.7353 366.086 44.7161 361.66 40.2941C357.234 35.8683 350.215 35.4035 345.246 39.2043L326.23 58.0483C323.371 60.2358 321.597 63.5483 321.359 67.1381C321.121 70.7279 322.445 74.2436 324.988 76.7904C327.531 79.3334 331.05 80.6537 334.64 80.4193C338.23 80.181 341.542 78.4037 343.73 75.5482L362.746 56.7041Z" fill="#D0D0D0"/>
<path d="M343.993 144.925C343.966 121.402 333.845 99.023 316.192 83.476C298.544 67.925 275.067 60.703 251.727 63.644C228.387 66.5815 207.438 79.402 194.192 98.843C171.594 87.316 145.075 86.308 121.665 96.0813C98.2549 105.855 80.3249 125.421 72.6259 149.593C44.8249 154.031 20.9379 171.765 8.64893 197.097C-3.64407 222.425 -2.78907 252.163 10.9301 276.749C24.6531 301.335 49.5161 317.671 77.5281 320.507C81.2469 321.597 85.2625 320.894 88.3911 318.609C91.5197 316.324 93.4106 312.714 93.5083 308.843C93.4927 302.277 88.395 296.847 81.8443 296.417C60.5863 295.3 41.4343 283.241 31.2393 264.554C21.0443 245.87 21.2705 223.238 31.837 204.761C42.403 186.284 61.794 174.609 83.067 173.917C88.8014 173.652 93.614 169.511 94.735 163.882C98.567 145.101 110.954 129.187 128.219 120.862C145.489 112.542 165.653 112.765 182.731 121.472C199.813 130.175 211.84 146.363 215.251 165.226C216.763 171.933 223.411 176.16 230.126 174.675C246.759 171.034 264.153 174.476 278.149 184.171C292.141 193.866 301.473 208.944 303.911 225.792C306.349 242.644 301.669 259.745 290.993 273.007C280.317 286.273 264.606 294.495 247.626 295.718C241.075 296.148 235.978 301.577 235.962 308.14C235.845 312.124 237.634 315.925 240.782 318.37C243.931 320.815 248.056 321.608 251.884 320.507C279.415 317.858 304.001 302.155 317.978 278.288C331.955 254.425 333.626 225.3 322.47 199.991C336.306 184.991 343.99 165.331 343.993 144.925L343.993 144.925ZM308.411 178.058C292.063 159.277 268.384 148.492 243.485 148.484H236.837C232.422 135.019 224.747 122.855 214.493 113.074C223.621 99.371 238.223 90.277 254.548 88.133C270.872 85.9885 287.329 91.0041 299.685 101.887C312.04 112.77 319.095 128.461 319.029 144.926C319.06 156.813 315.345 168.406 308.412 178.059L308.411 178.058Z" fill="#D0D0D0"/>
<path d="M126.413 252.965C123.132 252.481 119.796 253.321 117.136 255.301C114.476 257.281 112.714 260.238 112.237 263.52L97.5383 363.86C97.0539 367.141 97.8938 370.477 99.8781 373.137C101.859 375.797 104.816 377.559 108.097 378.035H109.905C116.085 378.012 121.32 373.473 122.215 367.359L136.797 267.079C137.773 260.329 133.152 254.04 126.414 252.966L126.413 252.965Z" fill="#D0D0D0"/>
<path d="M173.253 252.965C169.976 252.481 166.636 253.321 163.976 255.301C161.316 257.281 159.554 260.238 159.081 263.52L137.319 412.16C136.839 415.437 137.679 418.777 139.659 421.437C141.639 424.097 144.597 425.859 147.878 426.332H149.686C155.866 426.312 161.1 421.773 161.995 415.66L183.753 266.97C184.66 260.22 179.988 253.99 173.253 252.97L173.253 252.965Z" fill="#D0D0D0"/>
<path d="M220.093 252.965C216.812 252.481 213.472 253.321 210.816 255.301C208.156 257.281 206.394 260.238 205.918 263.52L188.008 386.02C187.527 389.301 188.367 392.641 190.348 395.301C192.328 397.957 195.285 399.719 198.566 400.195H200.375C206.57 400.137 211.785 395.543 212.625 389.406L230.535 266.906C231.406 260.196 226.777 254.011 220.094 252.965L220.093 252.965Z" fill="#D0D0D0"/>
</svg>
