<svg width="364" height="343" viewBox="0 0 364 343" fill="none" xmlns="http://www.w3.org/2000/svg">
<path d="M230.751 60.374C207.751 60.4639 186.138 71.378 172.415 89.835C152.517 79.456 129.071 78.331 108.267 86.7491C87.466 95.171 71.404 112.288 64.326 133.585C39.584 137.566 18.365 153.413 7.52495 176.007C-3.31505 198.597 -2.39694 225.069 9.97806 246.855C22.3531 268.644 44.6191 282.988 69.5761 285.25C73.33 286.289 77.3534 285.516 80.4551 283.156C83.5567 280.801 85.377 277.129 85.3848 273.234C85.3652 266.668 80.2676 261.238 73.7168 260.808C56.0368 259.613 40.2088 249.421 31.8028 233.824C23.3966 218.222 23.588 199.402 32.3106 183.976C41.0332 168.55 57.0646 158.687 74.7676 157.851C80.4981 157.586 85.3146 153.445 86.4316 147.816C89.6543 132.015 100.073 118.628 114.596 111.625C129.119 104.622 146.084 104.809 160.451 112.129C174.818 119.446 184.943 133.059 187.818 148.926C188.419 152.27 190.357 155.227 193.185 157.106C196.017 158.989 199.489 159.637 202.806 158.903C216.818 155.794 231.494 158.661 243.298 166.825C255.107 174.985 262.978 187.696 265.021 201.903C267.064 216.106 263.095 230.524 254.068 241.68C245.041 252.836 231.771 259.727 217.451 260.692C210.9 261.122 205.799 266.551 205.783 273.118C205.787 277.012 207.611 280.684 210.713 283.04C213.814 285.399 217.838 286.173 221.592 285.134C245.315 282.759 266.561 269.435 279.03 249.114C291.495 228.794 293.749 203.817 285.115 181.594C297.029 168.309 303.595 151.078 303.549 133.235C303.534 113.926 295.862 95.4105 282.213 81.7545C268.565 68.0945 250.057 60.4065 230.752 60.3755L230.751 60.374ZM213.716 132.476H209.107C205.517 122.152 199.747 112.722 192.193 104.824C202.114 91.539 218.213 84.34 234.728 85.801C251.248 87.2658 265.83 97.176 273.267 111.996C280.704 126.82 279.935 144.434 271.231 158.551C256.719 141.969 235.751 132.461 213.715 132.477L213.716 132.476Z" fill="#D0D0D0"/>
<path d="M218.381 12.484V39.316C218.381 46.2105 223.967 51.8 230.861 51.8C237.755 51.8 243.345 46.2102 243.345 39.316V12.484C243.345 5.58949 237.755 0 230.861 0C223.966 0 218.381 5.58979 218.381 12.484Z" fill="#D0D0D0"/>
<path d="M155.501 75.6642C157.684 78.5197 160.997 80.297 164.587 80.5314C168.177 80.7696 171.696 79.4494 174.239 76.9025C176.782 74.3595 178.106 70.8439 177.868 67.2541C177.63 63.6643 175.856 60.3479 173.001 58.1643L154.216 39.0313C149.247 35.2266 142.228 35.6915 137.802 40.1172C133.376 44.543 132.911 51.5582 136.716 56.5312L155.501 75.6642Z" fill="#D0D0D0"/>
<path d="M313.281 198.164C311.093 195.305 307.781 193.531 304.191 193.293C300.601 193.055 297.085 194.379 294.543 196.922C291.996 199.465 290.675 202.984 290.914 206.574C291.148 210.164 292.925 213.477 295.781 215.664L307.449 227.332V227.328C309.636 230.188 312.949 231.961 316.539 232.199C320.128 232.438 323.644 231.113 326.191 228.57C328.734 226.027 330.054 222.508 329.82 218.918C329.582 215.328 327.804 212.016 324.949 209.828L313.281 198.164Z" fill="#D0D0D0"/>
<path d="M351.441 120.754H324.605C317.71 120.754 312.125 126.344 312.125 133.238C312.125 140.132 317.711 145.722 324.605 145.722H351.441C358.335 145.722 363.921 140.132 363.921 133.238C363.921 126.343 358.335 120.754 351.441 120.754V120.754Z" fill="#D0D0D0"/>
<path d="M324.891 56.7041C328.696 51.7353 328.231 44.7161 323.805 40.2941C319.379 35.8683 312.36 35.4035 307.391 39.2043L288.375 58.0483C285.516 60.2358 283.742 63.5483 283.504 67.1381C283.266 70.7279 284.59 74.2436 287.133 76.7904C289.676 79.3334 293.195 80.6537 296.785 80.4193C300.375 80.181 303.687 78.4037 305.875 75.5482L324.891 56.7041Z" fill="#D0D0D0"/>
<path d="M159 226.5C159 233.957 152.957 240 145.5 240C138.046 240 132 233.957 132 226.5C132 219.046 138.046 213 145.5 213C152.957 213 159 219.046 159 226.5Z" fill="#D0D0D0"/>
<path d="M159 278.5C159 285.957 152.957 292 145.5 292C138.046 292 132 285.957 132 278.5C132 271.046 138.046 265 145.5 265C152.957 265 159 271.046 159 278.5Z" fill="#D0D0D0"/>
<path d="M159 329.5C159 336.957 152.957 343 145.5 343C138.046 343 132 336.957 132 329.5C132 322.046 138.046 316 145.5 316C152.957 316 159 322.046 159 329.5Z" fill="#D0D0D0"/>
<path d="M107.249 240.81C113.706 244.537 115.916 252.792 112.19 259.249C108.463 265.705 100.208 267.916 93.7513 264.19C87.2945 260.46 85.0838 252.208 88.8104 245.751C92.5399 239.294 100.792 237.084 107.249 240.81Z" fill="#D0D0D0"/>
<path d="M197.247 292.743C203.704 296.332 205.918 304.281 202.188 310.499C198.462 316.714 190.207 318.846 183.75 315.257C177.296 311.666 175.082 303.716 178.812 297.501C182.538 291.284 190.794 289.155 197.247 292.743" fill="#D0D0D0"/>
<path d="M112.19 297.5C115.916 303.717 113.706 311.667 107.248 315.255C100.794 318.847 92.5387 316.715 88.812 310.497C85.0821 304.283 87.2959 296.333 93.7501 292.745C100.207 289.153 108.463 291.285 112.19 297.5" fill="#D0D0D0"/>
<path d="M202.19 245.751C205.916 252.208 203.706 260.463 197.248 264.19C190.794 267.916 182.539 265.706 178.812 259.249C175.082 252.795 177.296 244.539 183.75 240.81C190.207 237.083 198.463 239.297 202.19 245.751" fill="#D0D0D0"/>
</svg>
