<svg width="388" height="420" viewBox="0 0 388 420" fill="none" xmlns="http://www.w3.org/2000/svg">
<path d="M325.403 145.861C325.434 123.591 315.914 102.381 299.258 87.6027C282.606 72.8217 260.414 65.8877 238.309 68.5637C216.204 71.2356 196.305 83.2587 183.653 101.584C162.329 90.8177 137.356 89.9277 115.317 99.154C93.2817 108.377 76.3867 126.787 69.0867 149.533C45.2547 153.252 24.2857 167.31 11.7977 187.947C-0.690342 208.584 -3.41733 233.681 4.34847 256.517C12.1141 279.353 29.5755 297.587 52.0555 306.333L41.9075 328.907H78.8915L41.9615 419.091L126.371 303.481L89.6805 304.004L132.731 233.539L84.7195 233.536L62.2625 283.587C45.7355 277.434 33.0045 263.962 27.7975 247.11C22.5944 230.262 25.5045 211.954 35.6803 197.551C45.8563 183.153 62.1453 174.289 79.7623 173.571C85.4967 173.305 90.3093 169.164 91.4303 163.536C94.9264 146.075 106.403 131.259 122.438 123.505C138.473 115.751 157.211 115.954 173.071 124.059C188.934 132.161 200.083 147.227 203.196 164.762C203.798 168.106 205.739 171.063 208.567 172.946C211.395 174.825 214.872 175.473 218.188 174.739C233.7 171.196 249.989 174.317 263.098 183.34C276.203 192.368 284.93 206.469 287.157 222.227C289.388 237.981 284.911 253.95 274.817 266.254C264.727 278.559 249.942 286.07 234.055 286.969C227.282 287.548 222.215 293.442 222.66 300.227C223.106 307.009 228.895 312.192 235.687 311.879C262.234 310.188 286.296 295.668 300.171 272.969C314.046 250.27 315.995 222.239 305.394 197.836C318.312 183.613 325.445 165.074 325.402 145.863L325.403 145.861ZM291.219 175.783C275.731 158.388 253.555 148.435 230.262 148.428H224.43C220.293 136.104 213.274 124.944 203.953 115.877C212.488 103.346 225.992 95.0917 241.035 93.2087C256.078 91.3298 271.203 96.0056 282.558 106.045C293.913 116.088 300.406 130.525 300.378 145.686C300.471 156.42 297.276 166.924 291.217 175.784L291.219 175.783Z" fill="#D0D0D0"/>
<path d="M242.236 12.484V39.316C242.236 46.2105 247.822 51.8 254.716 51.8C261.61 51.8 267.2 46.2102 267.2 39.316V12.484C267.2 5.58949 261.61 0 254.716 0C247.821 0 242.236 5.58979 242.236 12.484Z" fill="#D0D0D0"/>
<path d="M179.356 75.6642C181.539 78.5197 184.852 80.297 188.442 80.5314C192.032 80.7696 195.551 79.4494 198.094 76.9025C200.637 74.3595 201.961 70.8439 201.723 67.2541C201.485 63.6643 199.711 60.3479 196.856 58.1643L178.071 39.0313C173.102 35.2266 166.083 35.6915 161.657 40.1172C157.231 44.543 156.766 51.5582 160.571 56.5312L179.356 75.6642Z" fill="#D0D0D0"/>
<path d="M337.136 198.164C334.949 195.305 331.636 193.531 328.046 193.293C324.456 193.055 320.941 194.379 318.398 196.922C315.851 199.465 314.531 202.984 314.769 206.574C315.003 210.164 316.781 213.477 319.636 215.664L331.304 227.332V227.328C333.492 230.188 336.804 231.961 340.394 232.199C343.984 232.438 347.499 231.113 350.046 228.57C352.589 226.027 353.909 222.508 353.675 218.918C353.437 215.328 351.659 212.016 348.804 209.828L337.136 198.164Z" fill="#D0D0D0"/>
<path d="M375.296 120.754H348.46C341.565 120.754 335.98 126.344 335.98 133.238C335.98 140.132 341.566 145.722 348.46 145.722H375.296C382.19 145.722 387.776 140.132 387.776 133.238C387.776 126.343 382.19 120.754 375.296 120.754V120.754Z" fill="#D0D0D0"/>
<path d="M348.746 56.7041C352.551 51.7353 352.086 44.7161 347.66 40.2941C343.234 35.8683 336.215 35.4035 331.246 39.2043L312.23 58.0483C309.371 60.2358 307.597 63.5483 307.359 67.1381C307.121 70.7279 308.445 74.2436 310.988 76.7904C313.531 79.3334 317.05 80.6537 320.64 80.4193C324.23 80.181 327.542 78.4037 329.73 75.5482L348.746 56.7041Z" fill="#D0D0D0"/>
<path d="M163.527 245.87C160.342 244.96 156.92 245.354 154.023 246.967C151.126 248.581 148.991 251.281 148.091 254.472L106.993 398.965C106.086 402.151 106.48 405.573 108.094 408.47C109.707 411.367 112.407 413.502 115.598 414.401L117.391 414.639C123.52 415.431 129.305 411.619 130.995 405.676L172.097 261.133C173.882 254.56 170.069 247.771 163.527 245.875L163.527 245.87Z" fill="#D0D0D0"/>
<path d="M209.961 252.023C206.772 251.112 203.351 251.506 200.457 253.12C197.56 254.734 195.425 257.434 194.522 260.624L160.675 379.71C159.768 382.9 160.162 386.321 161.776 389.218C163.39 392.112 166.09 394.247 169.28 395.15L171.073 395.388C177.222 396.143 182.995 392.274 184.634 386.301L218.481 267.215C220.226 260.677 216.449 253.939 209.961 252.024L209.961 252.023Z" fill="#D0D0D0"/>
</svg>
