<svg width="336" height="381" viewBox="0 0 336 381" fill="none" xmlns="http://www.w3.org/2000/svg">
<path d="M95.1986 291.199H112C116.457 291.199 120.73 289.429 123.879 286.277C127.031 283.129 128.801 278.855 128.801 274.398V201.597C128.801 200.113 128.211 198.691 127.16 197.64C126.109 196.589 124.683 196 123.199 196H84C80.9062 196 78.3984 198.507 78.3984 201.597V274.398C78.3984 278.855 80.1718 283.129 83.3203 286.277C86.4726 289.429 90.7461 291.199 95.1993 291.199L95.1986 291.199ZM112 280H95.1986C92.1048 280 89.6009 277.492 89.6009 274.398V244.449C92.4017 245.762 95.4642 246.43 98.5579 246.399H109.199C112.082 246.453 114.941 245.903 117.601 244.785V274.398C117.601 275.883 117.011 277.308 115.961 278.359C114.91 279.41 113.484 280 112 280L112 280ZM89.6016 207.199H117.602V220.078C117.602 235.199 112.746 235.199 109.203 235.199H98.5582C95.4215 235.199 89.5973 235.199 89.5973 220.078L89.6016 207.199Z" fill="#D0D0D0"/>
<path d="M100.799 156.799H235.199C241.14 156.799 246.84 154.436 251.039 150.236C255.238 146.037 257.601 140.338 257.601 134.396V78.3964C257.601 76.912 257.011 75.4862 255.96 74.4355C254.91 73.3886 253.484 72.7988 252 72.7988H83.9995C80.9057 72.7988 78.3979 75.3027 78.3979 78.3965V134.397C78.3979 140.338 80.7612 146.038 84.9604 150.237C89.1596 154.436 94.8588 156.799 100.8 156.799L100.799 156.799ZM235.199 145.6L100.799 145.596C94.611 145.596 89.5995 140.584 89.5995 134.397V114.573C95.7401 120.124 103.721 123.194 111.998 123.198H223.998C232.275 123.194 240.256 120.124 246.396 114.573V134.397C246.396 137.37 245.216 140.217 243.118 142.319C241.017 144.417 238.169 145.596 235.196 145.596L235.199 145.6ZM89.5985 83.9979H246.399V89.5995V89.5956C246.399 95.537 244.039 101.237 239.84 105.436C235.637 109.639 229.942 111.998 224 111.998H112C106.059 111.998 100.363 109.639 96.1599 105.436C91.9607 101.236 89.6013 95.5372 89.6013 89.5956L89.5985 83.9979Z" fill="#D0D0D0"/>
<path d="M150.409 195.999C147.315 195.999 144.807 198.507 144.807 201.597V268.8C144.807 274.737 147.166 280.437 151.37 284.636C155.569 288.839 161.268 291.198 167.206 291.198H240.803C246.745 291.198 252.44 288.839 256.643 284.636C260.843 280.437 263.202 274.737 263.202 268.8V201.597C263.202 200.112 262.612 198.691 261.561 197.64C260.511 196.589 259.089 195.999 257.604 195.999L150.409 195.999ZM156.01 207.198H252.002V212.8C252.002 218.737 249.643 224.437 245.44 228.636C241.24 232.839 235.541 235.198 229.604 235.198H178.409C172.467 235.198 166.768 232.839 162.569 228.636C158.366 224.436 156.006 218.737 156.006 212.8L156.01 207.198ZM240.803 279.999H167.205C161.022 279.999 156.006 274.983 156.006 268.8V237.773C162.147 243.324 170.131 246.398 178.408 246.398H229.603C237.877 246.398 245.861 243.324 252.001 237.773V268.8C252.001 271.769 250.822 274.616 248.72 276.718C246.622 278.82 243.771 279.999 240.802 279.999L240.803 279.999Z" fill="#D0D0D0"/>
<path d="M302.399 151.199V95.199C302.383 78.867 295.887 63.211 284.34 51.66C272.789 40.113 257.133 33.617 240.801 33.598H229.153C227.805 24.2777 223.149 15.75 216.036 9.582C208.918 3.4101 199.817 0.0117 190.399 0H145.602C136.184 0.011719 127.082 3.4102 119.965 9.582C112.851 15.75 108.195 24.277 106.848 33.598H95.1996C78.8676 33.6175 63.2116 40.1136 51.6606 51.66C40.1136 63.211 33.6176 78.867 33.6016 95.199V151.199C24.6914 151.211 16.1526 154.754 9.85159 161.051C3.55469 167.351 0.0118 175.891 0 184.801V268.801C0.011719 277.707 3.55469 286.246 9.85159 292.547C16.1524 298.844 24.6916 302.39 33.6016 302.398V319.199C33.6016 320.711 33.7188 322.191 33.8242 323.68C33.711 324.043 33.6328 324.418 33.6016 324.801C33.6055 325.625 33.7969 326.441 34.1602 327.184C36.1094 342 43.3711 355.606 54.5982 365.469C65.8282 375.332 80.2542 380.778 95.2002 380.801H240.8C255.745 380.777 270.171 375.332 281.402 365.469C292.629 355.605 299.89 342 301.84 327.184C302.203 326.441 302.395 325.625 302.399 324.801C302.368 324.418 302.289 324.043 302.176 323.68C302.282 322.195 302.399 320.711 302.399 319.199V302.398C311.309 302.39 319.848 298.844 326.149 292.547C332.446 286.246 335.989 277.707 336 268.801V184.801C335.989 175.89 332.446 167.352 326.149 161.051C319.848 154.754 311.309 151.211 302.399 151.199H302.399ZM324.797 184.801V197.403L302.399 197.399V162.399C308.34 162.399 314.04 164.759 318.239 168.962C322.442 173.161 324.801 178.86 324.801 184.802L324.797 184.801ZM145.597 11.201H190.398H190.394C196.847 11.2088 203.101 13.4393 208.101 17.5213C213.097 21.5994 216.538 27.2791 217.835 33.5993H118.155C119.452 27.279 122.893 21.5993 127.889 17.5213C132.889 13.4393 139.143 11.2088 145.596 11.201H145.597ZM44.7966 95.201C44.8122 81.838 50.1247 69.029 59.5736 59.58C69.0228 50.1308 81.8316 44.814 95.1946 44.803H240.795C254.158 44.8147 266.967 50.1311 276.416 59.58C285.865 69.0292 291.178 81.838 291.193 95.201V319.201H44.7926L44.7966 95.201ZM33.5976 162.4V197.4H11.1956V184.802C11.1956 178.861 13.555 173.161 17.7581 168.962C21.9573 164.759 27.6565 162.4 33.5981 162.4L33.5976 162.4ZM11.1956 268.8V208.597H33.5936L33.5975 291.199C27.6561 291.199 21.9565 288.84 17.7575 284.637C13.5544 280.437 11.195 274.738 11.195 268.801L11.1956 268.8ZM240.796 369.6H95.1956C83.7856 369.584 72.7186 365.698 63.8006 358.577C54.8826 351.456 48.6406 341.526 46.0936 330.401H72.7966V347.202C72.7966 350.296 75.3044 352.804 78.3943 352.804C81.4881 352.804 83.9959 350.296 83.9959 347.202V330.401H289.896C287.349 341.526 281.107 351.456 272.189 358.577C263.271 365.698 252.205 369.585 240.794 369.6H240.796ZM302.394 291.202V208.6H324.792L324.796 268.803C324.796 274.741 322.436 280.44 318.233 284.639C314.034 288.842 308.335 291.202 302.393 291.202L302.394 291.202Z" fill="#D0D0D0"/>
</svg>
