<svg width="355" height="307" viewBox="0 0 355 307" fill="none" xmlns="http://www.w3.org/2000/svg">
<path d="M301.096 59.0385H286.726L263.34 20.0731C255.848 7.65678 242.421 0.0472308 227.917 0H173.573C159.072 0.0474413 145.643 7.65678 138.15 20.0731L114.735 59.0385H112.173V41.3269C112.173 39.7614 111.551 38.259 110.444 37.1521C109.337 36.0451 107.835 35.4231 106.269 35.4231H47.2308C43.9705 35.4231 41.3269 38.0667 41.3269 41.3269V60.4088C29.6009 63.0919 19.1298 69.6708 11.6235 79.0717C4.11717 88.476 0.0215912 100.143 0 112.173V253.865C0.0184497 267.953 5.62181 281.458 15.5821 291.418C25.5424 301.378 39.047 306.981 53.1346 307H301.096C315.184 306.982 328.689 301.378 338.649 291.418C348.608 281.458 354.212 267.953 354.231 253.865V112.173C354.212 98.0855 348.609 84.5802 338.649 74.6206C328.688 64.6609 315.184 59.0574 301.096 59.0385H301.096ZM53.1345 47.2308H100.365V59.0385H53.1345V47.2308ZM342.423 253.865C342.41 264.822 338.053 275.328 330.304 283.074C322.558 290.822 312.052 295.179 301.096 295.192H53.1345C42.1784 295.179 31.6722 290.822 23.9264 283.074C16.1778 275.328 11.8211 264.822 11.8076 253.865V112.173C11.8208 101.217 16.1776 90.7107 23.9264 82.9649C31.6722 75.2164 42.1784 70.8597 53.1345 70.8462H118.077C120.148 70.8462 122.07 69.7603 123.137 67.9838L148.239 26.1428C153.6 17.2661 163.205 11.8312 173.573 11.8076H227.888C238.252 11.8366 247.848 17.2713 253.204 26.1428L278.306 67.9838H278.309C279.379 69.7655 281.305 70.8514 283.385 70.8462H301.096C312.052 70.8593 322.559 75.2161 330.304 82.9649C338.053 90.7107 342.41 101.217 342.423 112.173L342.423 253.865Z" fill="#D0D0D0"/>
<path d="M200.731 100.365C180.376 100.365 160.853 108.451 146.46 122.845C132.067 137.238 123.981 156.76 123.981 177.115C123.981 197.471 132.067 216.993 146.46 231.386C160.853 245.78 180.376 253.865 200.731 253.865C221.086 253.865 240.608 245.78 255.002 231.386C269.395 216.993 277.481 197.471 277.481 177.115C277.457 156.768 269.363 137.259 254.975 122.871C240.587 108.482 221.078 100.389 200.731 100.365V100.365ZM200.731 242.058C183.507 242.058 166.989 235.215 154.81 223.037C142.63 210.857 135.788 194.34 135.788 177.115C135.788 159.891 142.631 143.374 154.81 131.194C166.989 119.015 183.506 112.173 200.731 112.173C217.955 112.173 234.472 119.016 246.652 131.194C258.831 143.374 265.673 159.891 265.673 177.115C265.652 194.334 258.804 210.838 246.63 223.015C234.453 235.189 217.949 242.036 200.731 242.058V242.058Z" fill="#D0D0D0"/>
<path d="M242.058 141.692H159.404C156.144 141.692 153.5 144.336 153.5 147.596V206.635C153.5 208.2 154.122 209.703 155.229 210.81C156.336 211.917 157.838 212.539 159.404 212.539H242.058C243.623 212.539 245.126 211.917 246.233 210.81C247.34 209.703 247.962 208.2 247.962 206.635V147.596C247.962 146.031 247.34 144.528 246.233 143.421C245.126 142.314 243.623 141.692 242.058 141.692ZM236.154 200.731H165.308V153.5H236.154V200.731Z" fill="#D0D0D0"/>
<path d="M307 153.5H304.262C296.45 119.234 272.204 91.0461 239.493 78.2007C206.783 65.3546 169.835 69.5109 140.795 89.3074C111.755 109.101 94.3809 141.973 94.3809 177.116C94.3809 212.259 111.755 245.128 140.795 264.925C169.834 284.721 206.783 288.878 239.493 276.032C272.204 263.185 296.45 234.997 304.262 200.732H307C315.437 200.732 323.233 196.23 327.452 188.924C331.669 181.619 331.669 172.615 327.452 165.309C323.233 158.003 315.436 153.501 307 153.501V153.5ZM200.731 271.577C176.63 271.598 153.434 262.407 135.891 245.887C118.345 229.365 107.777 206.764 106.351 182.706C104.925 158.65 112.748 134.955 128.216 116.477C143.687 97.9985 165.634 86.1328 189.569 83.305C213.501 80.4796 237.609 86.9079 256.957 101.272C276.308 115.639 289.434 136.859 293.651 160.585C294.146 163.384 294.512 166.075 294.765 168.708C295.013 171.478 295.19 174.274 295.19 177.11C295.19 179.943 295.013 182.742 294.765 185.512C294.512 188.145 294.175 190.826 293.651 193.635C289.758 215.459 278.319 235.221 261.335 249.466C244.35 263.714 222.899 271.54 200.731 271.577V271.577ZM307 188.923H306.304C306.41 187.956 306.47 186.975 306.552 186C306.823 183.019 307 180.033 307 177.115C307 174.198 306.823 171.212 306.552 168.231C306.47 167.255 306.41 166.278 306.304 165.308H307C311.22 165.308 315.118 167.559 317.226 171.212C319.335 174.865 319.335 179.366 317.226 183.019C315.118 186.672 311.22 188.923 307 188.923Z" fill="#D0D0D0"/>
<path d="M53.1347 82.6538C46.8724 82.6538 40.8655 85.1419 36.4352 89.5697C32.0073 94.0003 29.5193 100.007 29.5193 106.269C29.5193 112.531 32.0073 118.538 36.4352 122.969C40.8657 127.397 46.8725 129.885 53.1347 129.885C59.3968 129.885 65.4039 127.397 69.8341 122.969C74.262 118.538 76.7501 112.531 76.7501 106.269C76.7501 100.007 74.262 94 69.8341 89.5697C65.4036 85.1419 59.3968 82.6538 53.1347 82.6538ZM53.1347 118.077C50.0035 118.077 46.9989 116.833 44.7849 114.619C42.571 112.405 41.327 109.4 41.327 106.269C41.327 103.138 42.571 100.133 44.7849 97.9195C46.9989 95.7056 50.0035 94.4615 53.1347 94.4615C56.2658 94.4615 59.2705 95.7056 61.4844 97.9195C63.6983 100.133 64.9424 103.138 64.9424 106.269C64.9424 109.4 63.6983 112.405 61.4844 114.619C59.2705 116.833 56.2658 118.077 53.1347 118.077Z" fill="#D0D0D0"/>
<path d="M64.9424 141.692H76.7501V265.673H64.9424V141.692Z" fill="#D0D0D0"/>
<path d="M88.5576 100.365H100.365V112.173H88.5576V100.365Z" fill="#D0D0D0"/>
<path d="M94.4614 259.769H106.269V271.577H94.4614V259.769Z" fill="#D0D0D0"/>
<path d="M171.211 59.0386H230.25C231.815 59.0386 233.318 58.4165 234.425 57.3096C235.532 56.2026 236.154 54.7003 236.154 53.1347V29.5193C236.154 27.9538 235.532 26.4514 234.425 25.3445C233.318 24.2375 231.815 23.6155 230.25 23.6155H171.211C167.951 23.6155 165.308 26.2591 165.308 29.5193V53.1347C165.308 54.7003 165.93 56.2026 167.037 57.3096C168.144 58.4165 169.646 59.0386 171.211 59.0386ZM177.115 35.4232H224.346V47.2309H177.115V35.4232Z" fill="#D0D0D0"/>
</svg>
