<svg width="212" height="385" viewBox="0 0 212 385" fill="none" xmlns="http://www.w3.org/2000/svg">
<path d="M19.2517 333.572H20.6639L23.428 344.66C24.4706 348.825 26.8738 352.52 30.2595 355.161C33.6424 357.804 37.8131 359.237 42.1064 359.237H44.9164V372.069H32.0839V384.901H96.2462V372.069H83.4138V359.237H86.2237C90.5174 359.237 94.688 357.804 98.0706 355.161C101.456 352.52 103.86 348.825 104.902 344.66L107.666 333.572H109.078C114.183 333.572 119.081 331.544 122.69 327.935C126.298 324.326 128.327 319.427 128.327 314.324V216.988C128.338 211.866 126.299 206.95 122.661 203.342L115.494 196.175V182.32L209.861 87.873V87.8759C212.364 85.3695 212.364 81.3078 209.861 78.8015L132.866 1.80674C130.322 -0.602246 126.335 -0.602246 123.791 1.80674L17.92 107.774C7.76033 117.928 1.53843 131.362 0.366642 145.681C0.154679 146.268 0.0315092 146.881 0 147.502V314.324C0 319.429 2.02797 324.327 5.63712 327.936C9.24626 331.544 14.1447 333.573 19.2483 333.573L19.2517 333.572ZM12.8355 269.41H38.5004V295.075H12.8355V269.41ZM70.5815 372.069H57.7491V359.237H70.5815V372.069ZM92.4539 341.541C91.7407 344.399 89.1713 346.407 86.2239 346.404H42.1066C39.1592 346.407 36.5898 344.399 35.8765 341.541L33.88 333.572H94.4507L92.4539 341.541ZM109.079 320.739H19.2517C15.7085 320.739 12.8355 317.866 12.8355 314.323V307.907H44.9166C46.618 307.907 48.2508 307.231 49.4538 306.028C50.6568 304.825 51.3328 303.192 51.3328 301.491V262.993C51.3328 261.292 50.6568 259.659 49.4538 258.456C48.2508 257.253 46.618 256.577 44.9166 256.577H12.8355V187.975C23.3075 201.586 39.0591 210.125 56.1791 211.471C73.3027 212.815 90.1939 206.843 102.663 195.033V198.831C102.663 200.532 103.339 202.165 104.542 203.368L113.587 212.414H113.59C114.819 213.62 115.512 215.267 115.515 216.988V218.08H96.2467C92.7035 218.08 89.8305 220.953 89.8305 224.496V301.491C89.8305 303.192 90.5065 304.825 91.7095 306.028C92.9126 307.231 94.5453 307.907 96.2467 307.907H115.495V314.323C115.495 316.025 114.819 317.657 113.616 318.86C112.413 320.063 110.781 320.739 109.079 320.739L109.079 320.739ZM115.495 295.075H102.663V230.912H115.495V295.075ZM94.9177 184.767C86.6969 193.002 75.7607 197.963 64.1484 198.728C52.5391 199.493 41.0471 196.009 31.815 188.923L41.8947 178.843C51.8454 185.956 64.5891 187.903 76.2102 184.094C87.8313 180.281 96.9453 171.167 100.758 159.546C104.568 147.925 102.62 135.181 95.5079 125.23L166.826 53.9125L196.251 83.3385L94.9177 184.767ZM89.8306 147.501C89.8306 154.307 87.1266 160.835 82.3144 165.65C77.4994 170.462 70.9713 173.166 64.1656 173.166C57.36 173.166 50.8316 170.462 46.0169 165.65C41.2047 160.835 38.5007 154.307 38.5007 147.501C38.5007 140.696 41.2047 134.167 46.0169 129.353C50.8319 124.54 57.36 121.836 64.1656 121.836C70.9713 121.836 77.4997 124.54 82.3144 129.353C87.1266 134.168 89.8306 140.696 89.8306 147.501ZM26.997 116.843L128.329 15.4231L157.755 44.8402L86.4377 116.158C76.487 109.046 63.7433 107.098 52.1222 110.907C40.5011 114.72 31.3871 123.834 27.5741 135.456C23.7644 147.077 25.7122 159.82 32.8245 169.771L22.7646 179.831H22.7618C15.7469 170.59 12.3095 159.122 13.089 147.547C13.8681 135.969 18.8064 125.064 26.9987 116.843L26.997 116.843Z" fill="#D0D0D0"/>
</svg>
