<svg width="385" height="385" viewBox="0 0 385 385" fill="none" xmlns="http://www.w3.org/2000/svg">
<path d="M186.083 269.5H198.917V282.333H186.083V269.5Z" fill="#D0D0D0"/>
<path d="M378.583 44.9166H352.917V25.6667C352.917 23.9651 352.241 22.3323 351.037 21.1292C349.834 19.926 348.201 19.25 346.5 19.25H320.833C317.29 19.25 314.417 22.1232 314.417 25.6667V44.9166C310.873 44.9166 308 47.7898 308 51.3333V70.5833H237.417V51.3333H250.25C251.952 51.3333 253.584 50.6573 254.787 49.4541C255.991 48.251 256.667 46.6182 256.667 44.9166V6.41666C256.667 4.71511 255.991 3.08227 254.787 1.87917C253.584 0.676062 251.952 2.05967e-06 250.25 2.05967e-06H182.322C174.811 -0.00286234 167.607 2.98203 162.293 8.29326C156.982 13.6071 153.998 20.8113 154 28.3221V30.7225C149.927 34.3176 147.589 39.4851 147.583 44.9162V53.7851L131.201 45.5894C131.123 45.5579 131.04 45.5436 130.963 45.5121C130.886 45.4805 130.679 45.4147 130.533 45.3574V45.3602C129.917 45.1311 129.267 44.9993 128.608 44.9678C128.499 44.9621 128.422 44.9162 128.333 44.9162H38.5V38.4996C38.5 36.798 37.8239 35.1652 36.6208 33.9621C35.4177 32.759 33.7849 32.0829 32.0833 32.0829H6.41666C2.8732 32.0829 0 34.9561 0 38.4996V141.166C0 142.868 0.676045 144.501 1.87917 145.704C3.08229 146.907 4.71511 147.583 6.41666 147.583H32.0833C33.7849 147.583 35.4177 146.907 36.6208 145.704C37.8239 144.501 38.5 142.868 38.5 141.166V134.749H128.333C129.267 134.735 130.187 134.517 131.029 134.108C131.08 134.108 131.152 134.108 131.201 134.071L147.583 125.881V134.75C147.603 136.941 148.004 139.112 148.764 141.166H147.583C144.04 141.166 141.167 144.04 141.167 147.583V173.25C141.167 174.951 141.843 176.584 143.046 177.787C144.249 178.99 145.882 179.666 147.583 179.666H237.417C239.118 179.666 240.751 178.99 241.954 177.787C243.157 176.584 243.833 174.951 243.833 173.25V147.583C243.833 145.881 243.157 144.249 241.954 143.045C240.751 141.842 239.118 141.166 237.417 141.166H236.236C236.996 139.112 237.397 136.941 237.417 134.75V109.083H308V128.333C308 130.035 308.676 131.667 309.879 132.87C311.082 134.074 312.715 134.75 314.417 134.75H346.5V170.838L305.086 218.166H166.831C163.288 218.166 160.414 221.039 160.414 224.583V365.75C160.414 370.854 162.443 375.753 166.052 379.362C169.661 382.97 174.56 384.999 179.664 384.999H205.331C210.435 384.999 215.334 382.971 218.943 379.362C222.552 375.752 224.58 370.853 224.58 365.75V256.666H320.83C322.649 256.666 324.382 255.893 325.597 254.544L383.347 190.377C384.41 189.197 384.997 187.667 384.997 186.083V51.333C384.997 49.6315 384.321 47.9986 383.118 46.7955C381.915 45.5924 380.282 44.9164 378.58 44.9164L378.583 44.9166ZM372.167 121.917H359.333V57.75H372.167V121.917ZM192.5 115.5C186.298 115.506 180.305 113.268 175.627 109.198C170.95 105.127 167.902 99.5009 167.051 93.3593C166.197 87.2176 167.598 80.9755 170.993 75.785C174.387 70.5972 179.543 66.8104 185.514 65.1289C191.48 63.4474 197.857 63.9831 203.46 66.6357C209.064 69.2912 213.518 73.8831 215.999 79.5665C217.019 81.904 219.325 83.4165 221.877 83.4165H346.5V96.2499H221.877C219.325 96.2499 217.019 97.7624 215.999 100.1C214.002 104.672 210.717 108.565 206.543 111.3C202.369 114.036 197.49 115.494 192.501 115.5L192.5 115.5ZM160.417 64.1666V44.9166C160.417 42.688 161.583 40.6197 163.49 39.4682C163.545 39.451 163.599 39.4281 163.651 39.4052C164.092 39.156 164.559 38.9526 165.043 38.8007L165.255 38.7492C165.768 38.5945 166.298 38.5086 166.833 38.5H218.167C218.636 38.5086 219.103 38.5773 219.559 38.6976L219.848 38.7549V38.7578C220.372 38.9096 220.876 39.1245 221.349 39.3995C221.839 39.6802 222.289 40.0239 222.69 40.4192C223.091 40.826 223.443 41.2815 223.735 41.7713C223.781 41.8487 223.793 41.9375 223.838 42.0206V42.0234C224.111 42.5276 224.303 43.0719 224.411 43.6333C224.512 44.0544 224.569 44.4841 224.583 44.9166V68.747C217.522 57.9106 205.476 51.3619 192.543 51.3333C179.606 51.3018 167.53 57.7901 160.417 68.5952L160.417 64.1666ZM327.25 32.0833H340.083V44.9166H327.25V32.0833ZM320.833 57.75H346.5V70.5833H320.833V57.75ZM243.833 38.5H236.294C236.242 38.3596 236.145 38.2422 236.096 38.1018C235.626 36.8757 235.031 35.7013 234.317 34.5985C234.214 34.438 234.137 34.2776 234.028 34.1229C233.343 33.106 232.567 32.155 231.705 31.2813C231.461 31.0435 231.224 30.8201 231 30.6396V12.8335H243.833L243.833 38.5ZM171.371 17.3763C174.267 14.4602 178.212 12.8245 182.323 12.8331H218.167V25.6664H167.058C167.602 22.524 169.109 19.625 171.372 17.3761L171.371 17.3763ZM121.917 121.913H89.8334V57.7463H121.917V121.913ZM77.0001 96.2463H64.1667V83.4129H77.0001V96.2463ZM77.0001 70.5796H64.1667V57.7463H77.0001V70.5796ZM64.1667 109.08H77.0001V121.913H64.1667V109.08ZM25.6668 134.746H12.8334V44.913H25.6668V134.746ZM38.5001 57.7463H51.3334V121.913H38.5001V57.7463ZM134.75 117.949V61.7107L147.583 68.1274V111.529L134.75 117.949ZM160.417 134.746V111.068C163.714 116.018 168.105 120.14 173.25 123.119V141.163H166.833C163.29 141.163 160.417 138.29 160.417 134.746ZM231 166.83H154V153.996H179.667C181.368 153.996 183.001 153.32 184.204 152.117C185.407 150.914 186.083 149.281 186.083 147.58V127.751C188.203 128.123 190.349 128.318 192.5 128.33C194.651 128.31 196.8 128.109 198.917 127.725V147.579C198.917 149.281 199.593 150.914 200.796 152.117C201.999 153.32 203.632 153.996 205.333 153.996H231V166.83ZM211.75 141.163V123.151C216.921 120.126 221.315 115.938 224.583 110.916V134.746C224.583 136.448 223.907 138.081 222.704 139.284C221.501 140.487 219.868 141.163 218.167 141.163H211.75ZM320.833 109.08H346.5V121.913H320.833V109.08ZM173.25 230.996H211.75V243.83H173.25V230.996ZM211.75 365.746C211.75 367.448 211.074 369.08 209.871 370.284C208.668 371.487 207.035 372.163 205.333 372.163H179.667C176.123 372.163 173.25 369.29 173.25 365.746V256.663H211.75V365.746ZM372.167 183.616L317.977 243.829H224.58V230.995H307.996C309.847 230.993 311.606 230.196 312.829 228.807L357.745 177.474C358.768 176.302 359.332 174.801 359.33 173.245V134.746H372.163L372.167 183.616Z" fill="#D0D0D0"/>
</svg>
