<svg width="398" height="377" viewBox="0 0 398 377" fill="none" xmlns="http://www.w3.org/2000/svg">
<path d="M364.412 70.3706H257.602V32.2532C257.602 14.661 243.361 0 225.349 0H172.991C154.981 0 140.737 14.2406 140.737 32.2532V70.3706H33.9272C15.0791 70.3706 0 85.8678 0 104.298V317.499C0 335.93 15.4972 351.427 33.9272 351.427H88.7976V359.803C88.7976 369.018 96.3356 376.556 105.551 376.556H127.332C136.547 376.556 144.085 369.018 144.085 359.803V351.427L253.416 351.43V359.806C253.416 369.021 260.954 376.559 270.169 376.559H291.951C301.166 376.559 308.704 369.021 308.704 359.806V351.43H363.574C382.423 351.43 397.502 335.932 397.502 317.502V104.301C398.34 85.87 382.843 70.3705 364.413 70.3705L364.412 70.3706ZM172.573 10.892H224.931C234.984 10.892 243.779 18.0123 245.874 27.645H151.629C153.724 18.0119 162.521 10.892 172.573 10.892ZM151.211 37.6992H246.712V70.3706H151.211V37.6992ZM33.5106 340.956C20.5266 340.956 10.055 330.485 10.055 317.501V103.88C10.055 91.3138 20.5266 80.4248 33.5106 80.4248H54.4538V340.539H33.5106V340.956ZM64.9254 340.956V80.8422H88.381V340.956H64.9254ZM133.619 359.805C133.619 363.156 130.686 366.086 127.337 366.086H105.556C102.204 366.086 99.2738 363.153 99.2738 359.805V351.428H134.039L133.619 359.805ZM98.4352 340.956V80.8422H299.49V340.956H98.4352ZM299.071 359.805C299.071 363.156 296.137 366.086 292.789 366.086H271.007C267.656 366.086 264.726 363.153 264.726 359.805V351.428H299.491L299.071 359.805ZM309.961 340.956V80.8422H333.416V340.956H309.961ZM387.45 317.501C387.45 330.068 376.979 340.956 363.995 340.956H343.052V81.261H363.995C376.979 81.261 387.45 91.7326 387.45 104.717V317.501Z" fill="#D0D0D0"/>
</svg>
