<svg width="296" height="391" viewBox="0 0 296 391" fill="none" xmlns="http://www.w3.org/2000/svg">
<path d="M87.4552 229.044C96.3752 229.044 104.931 225.5 111.241 219.194C117.548 212.884 121.092 204.328 121.092 195.408C121.092 186.488 117.548 177.932 111.241 171.622C104.931 165.315 96.3752 161.771 87.4552 161.771C78.5352 161.771 69.9796 165.315 63.669 171.622C57.3622 177.931 53.8187 186.488 53.8187 195.408C53.8187 204.328 57.3626 212.883 63.669 219.194C69.9788 225.501 78.5352 229.044 87.4552 229.044ZM87.4552 175.226C92.8069 175.226 97.9428 177.352 101.726 181.136C105.51 184.92 107.637 190.056 107.637 195.407C107.637 200.759 105.51 205.895 101.726 209.678C97.9421 213.462 92.8062 215.589 87.4552 215.589C82.1041 215.589 76.9675 213.463 73.1841 209.678C69.4006 205.894 67.2737 200.759 67.2737 195.407C67.2737 190.056 69.4 184.92 73.1841 181.136C76.9682 177.353 82.1041 175.226 87.4552 175.226Z" fill="#D0D0D0"/>
<path d="M180.761 198.775C179.553 196.685 177.319 195.403 174.907 195.412C172.574 195.37 170.382 196.541 169.123 198.505L125.125 267.796L96.6691 256.426V256.429C93.762 255.275 90.4433 256.282 88.6625 258.849L41.5714 326.122C40.22 328.119 40.0427 330.684 41.0999 332.849C42.2021 335.165 44.5236 336.652 47.0884 336.685H248.907C251.319 336.694 253.553 335.411 254.76 333.321C255.962 331.24 255.962 328.675 254.76 326.594L180.761 198.775ZM60.0078 323.234L96.6058 270.896L125.332 282.399H125.329C128.32 283.585 131.732 282.486 133.471 279.777L174.909 215.126L237.272 323.231L60.0078 323.234Z" fill="#D0D0D0"/>
<path d="M290.081 85.8182L210.499 6.2363C206.718 2.45218 201.585 0.322891 196.237 0.316895H20.1815C14.8297 0.316895 9.69383 2.44318 5.91041 6.2273C2.12698 10.0114 0 15.1473 0 20.4984V370.318C0 375.669 2.12629 380.805 5.91041 384.589C9.69453 388.372 14.8304 390.499 20.1815 390.499H275.819C281.17 390.499 286.306 388.373 290.09 384.589C293.873 380.805 296 375.669 296 370.318V100.08C295.994 94.7315 293.865 89.5994 290.081 85.8182ZM208.546 23.2544L273.062 87.7703H215.274C211.559 87.7703 208.546 84.758 208.546 81.043V23.2544ZM275.819 377.041H20.1823C16.4673 377.041 13.455 374.028 13.455 370.313V20.4943C13.455 16.7793 16.4673 13.767 20.1823 13.767H195.092V81.0399C195.092 86.3917 197.218 91.5276 201.002 95.311C204.786 99.0944 209.922 101.221 215.273 101.221H282.546V370.313C282.546 372.097 281.837 373.809 280.576 375.07C279.315 376.332 277.603 377.041 275.819 377.041Z" fill="#D0D0D0"/>
</svg>
