<svg width="276" height="338" viewBox="0 0 276 338" fill="none" xmlns="http://www.w3.org/2000/svg">
<path d="M13.1089 0L11.2354 1.86932C-3.74512 16.8158 -3.74512 41.1272 11.2354 56.0737L13.1089 57.943H27.4711L27.4711 90.7361C17.4563 92.6257 9.36167 101.767 9.36203 112.148V261.989L36.5259 289.091V338H239.474V289.091L266.637 261.989L266.637 112.147C266.637 106.32 264.365 100.847 260.237 96.7271C257.009 93.5067 252.934 91.4662 248.53 90.702L248.529 57.9435L262.891 57.9435L264.765 56.0741C279.745 41.1277 279.745 16.8162 264.765 1.86978L262.891 0.00045687L13.1089 0ZM45.5814 280.056L31.2213 265.728H244.786L230.426 280.056L45.5814 280.056ZM22.1646 252.954L22.1646 184.42H253.839V252.954L22.1646 252.954ZM239.475 171.647V139.249H253.838V171.647H239.475ZM226.674 171.647H212.312V139.249H226.674V171.647ZM199.51 171.647H185.148V139.249H199.51V171.647ZM172.346 171.647H157.984V139.249H172.346V171.647ZM145.182 171.647H130.82V139.249H145.182V171.647ZM118.018 171.647H103.656L103.656 139.249H118.018V171.647ZM90.8545 171.647H76.4924L76.4923 139.249H90.8545V171.647ZM63.6907 171.647H49.3285L49.3285 139.249H63.6907V171.647ZM36.5268 171.647H22.1646L22.1646 139.249H36.5268V171.647ZM49.3275 325.226V292.828H226.674V325.226H49.3275ZM253.838 112.146V126.476H22.1636L22.1636 112.146C22.1717 107.323 26.3835 103.12 31.2182 103.112H244.783C247.204 103.116 249.472 104.052 251.184 105.76C252.896 107.468 253.834 109.73 253.838 112.146ZM235.728 90.3395H40.2729L40.2729 57.9418L235.728 57.9418V90.3395ZM257.409 45.163L18.5946 45.163C10.8717 35.7759 10.8718 22.1524 18.5946 12.7653L257.409 12.7756C265.134 22.1525 265.134 35.784 257.409 45.1609V45.163Z" fill="#D0D0D0"/>
<path d="M36.5268 238.623H112.711V198.748H36.5268V238.623ZM99.9091 225.85L49.3284 225.85L49.3284 211.521H99.9091V225.85Z" fill="#D0D0D0"/>
<path d="M205.91 205.135C198.422 212.606 198.422 224.766 205.91 232.237C213.399 239.709 225.586 239.709 233.074 232.237C240.562 224.766 240.562 212.606 233.074 205.135C225.586 197.664 213.399 197.664 205.91 205.135ZM224.019 223.203C221.521 225.696 217.463 225.696 214.965 223.203C212.467 220.711 212.467 216.662 214.965 214.169C217.463 211.677 221.521 211.677 224.019 214.169C226.518 216.662 226.518 220.711 224.019 223.203Z" fill="#D0D0D0"/>
<path d="M151.583 205.135C144.094 212.606 144.094 224.766 151.583 232.237C159.071 239.709 171.258 239.709 178.746 232.237C186.235 224.766 186.235 212.606 178.746 205.135C171.258 197.664 159.071 197.664 151.583 205.135ZM169.692 223.203C167.194 225.696 163.135 225.696 160.637 223.203C158.139 220.711 158.139 216.662 160.637 214.169C163.135 211.677 167.194 211.677 169.692 214.169C172.19 216.662 172.19 220.711 169.692 223.203Z" fill="#D0D0D0"/>
</svg>
