<svg width="247" height="389" viewBox="0 0 247 389" fill="none" xmlns="http://www.w3.org/2000/svg">
<path fill-rule="evenodd" clip-rule="evenodd" d="M132.887 4.13085C127.426 -1.38475 118.575 -1.36915 113.153 4.13085L25.876 92.6309C15.337 103.193 31.1416 119.029 41.685 108.467L108.04 41.9789C110.239 39.7719 112.024 40.471 112.024 43.553V246.163C112.024 252.351 117.024 257.362 123.2 257.362C129.372 257.362 134.38 252.35 134.38 246.163V43.553C134.38 40.4788 136.119 39.7289 138.361 41.9789L204.72 108.467C215.255 119.029 231.064 103.193 220.525 92.6309L132.887 4.13085ZM67.199 142.331H28C12.527 142.331 0 154.874 0 170.37V360.69C0 376.182 12.535 388.729 28.035 388.729H218.365C233.853 388.729 246.4 376.19 246.4 360.69V170.37C246.4 154.897 233.845 142.331 218.4 142.331H179.201C173.014 142.331 168.002 147.346 168.002 153.53C168.002 159.717 173.014 164.733 179.201 164.733H218.4C221.47 164.733 224.002 167.264 224.002 170.37V360.69C224.002 363.815 221.486 366.326 218.365 366.326H28.0349C24.9099 366.326 22.3982 363.815 22.3982 360.69V170.37C22.3982 167.237 24.9021 164.733 27.9998 164.733H67.1988C73.3863 164.733 78.3978 159.717 78.3978 153.53C78.3978 147.346 73.3863 142.331 67.199 142.331Z" fill="#D0D0D0"/>
</svg>
